#N canvas 673 59 647 741 10;
#N canvas 0 22 450 278 (subpatch) 0;
#X array fm 240000 float 0;
#X coords 0 1 239999 -1 200 140 1 0 0;
#X restore 53 354 graph;
#X obj 455 396 osc~;
#X obj 522 354 bng 16 250 50 0 empty empty empty 0 -8 0 10 #fcfcfc #000000 #000000;
#X obj 374 354 bng 16 250 50 0 empty empty empty 0 -8 0 10 #fcfcfc #000000 #000000;
#X msg 374 375 0;
#X obj 455 354 osc~ 0.3;
#X obj 305 414 *~ 2;
#X obj 305 435 -~ 1;
#N canvas 0 22 450 278 (subpatch) 0;
#X array phasor 24000 float 0;
#X coords 0 1 23999 -1 200 140 1;
#X restore 53 544 graph;
#X obj 305 478 tabwrite~ phasor;
#X obj 455 477 tabwrite~ fm;
#X obj 305 354 phasor~ 2;
#X obj 455 375 *~ 80;
#X obj 455 438 osc~;
#X obj 455 417 *~ 8000;
#X msg 305 544 \; phasor const 0 \; fm const 0;
#X msg 305 613 \; pdluax reload;
#X msg 53 136 width 200 \, height 140;
#X obj 53 168 explore fm -width 200 -height 140;
#X msg 348 136 symbol fm;
#X msg 418 136 symbol phasor;
#X msg 202 136 width 560 \, height 200;
#X msg 518 136 symbol error;
#X obj 56 44 hsl 136 16 0 24000 0 0 empty empty empty -2 -8 0 10 #fcfcfc #000000 #000000 0 1;
#X obj 225 44 hsl 136 16 0 24000 0 0 empty empty empty -2 -8 0 10 #fcfcfc #000000 #000000 0 1;
#X floatatom 222 65 8 0 0 0 - - - 0;
#X obj 53 66 t f f f;
#X obj 81 87 * 2;
#X obj 110 87 * 3;
#X obj 53 109 pack f f f;
#X msg 260 96 scale;
#X msg 205 96 scale 1;
#X connect 1 0 14 0;
#X connect 2 0 10 0;
#X connect 3 0 4 0;
#X connect 3 0 9 0;
#X connect 4 0 11 1;
#X connect 5 0 12 0;
#X connect 6 0 7 0;
#X connect 7 0 9 0;
#X connect 11 0 6 0;
#X connect 12 0 1 0;
#X connect 13 0 10 0;
#X connect 14 0 13 0;
#X connect 17 0 18 0;
#X connect 19 0 18 0;
#X connect 20 0 18 0;
#X connect 21 0 18 0;
#X connect 22 0 18 0;
#X connect 23 0 26 0;
#X connect 24 0 25 0;
#X connect 25 0 18 0;
#X connect 26 0 29 0;
#X connect 26 1 27 0;
#X connect 26 2 28 0;
#X connect 27 0 29 1;
#X connect 28 0 29 2;
#X connect 29 0 18 0;
#X connect 30 0 18 0;
#X connect 31 0 18 0;
